HIERARCHY
ROOT Hips
{
    OFFSET   0.000000   0.000000   0.000000
    CHANNELS 6 Xposition Yposition Zposition Zrotation Xrotation Yrotation
    JOINT Chest
    {
        OFFSET   0.000000   8.007230   0.000000
        CHANNELS 3 Zrotation Xrotation Yrotation
        JOINT Chest2
        {
            OFFSET   0.000000  22.077100   0.000000
            CHANNELS 3 Zrotation Xrotation Yrotation
            JOINT Neck
            {
                OFFSET   0.000000  23.255100   0.000000
                CHANNELS 3 Zrotation Xrotation Yrotation
                JOINT Head
                {
                    OFFSET   0.000000  14.370100   1.956600
                    CHANNELS 3 Zrotation Xrotation Yrotation
                    End Site
                    {
                        OFFSET   0.000000  19.566000   0.000000
                    }
                }
            }
            JOINT LeftCollar
            {
                OFFSET   3.911900  19.017000  -0.467063
                CHANNELS 3 Zrotation Xrotation Yrotation
                JOINT LeftShoulder
                {
                    OFFSET  10.383700   0.000000   0.000000
                    CHANNELS 3 Zrotation Xrotation Yrotation
                    JOINT LeftElbow
                    {
                        OFFSET  26.662100   0.001193   0.000980
                        CHANNELS 3 Zrotation Xrotation Yrotation
                        JOINT LeftWrist
                        {
                            OFFSET  28.869000  -0.000059  -0.000082
                            CHANNELS 3 Zrotation Xrotation Yrotation
                            JOINT LeftFinger0
                            {
                                OFFSET   2.044650  -2.323450   3.252850
                                CHANNELS 3 Zrotation Xrotation Yrotation
                                JOINT LeftFinger01
                                {
                                    OFFSET   3.088130   0.000000   0.000000
                                    CHANNELS 3 Zrotation Xrotation Yrotation
                                    JOINT LeftFinger02
                                    {
                                        OFFSET   2.639460   0.000000   0.000000
                                        CHANNELS 3 Zrotation Xrotation Yrotation
                                        End Site
                                        {
                                            OFFSET   2.582190   0.000000   0.000000
                                        }
                                    }
                                }
                            }
                            JOINT LeftFinger1
                            {
                                OFFSET   8.364480   0.000000   3.252850
                                CHANNELS 3 Zrotation Xrotation Yrotation
                                JOINT LeftFinger11
                                {
                                    OFFSET   4.646930   0.000000   0.000000
                                    CHANNELS 3 Zrotation Xrotation Yrotation
                                    JOINT LeftFinger12
                                    {
                                        OFFSET   2.323470   0.000000   0.000000
                                        CHANNELS 3 Zrotation Xrotation Yrotation
                                        End Site
                                        {
                                            OFFSET   2.273050   0.000000   0.000000
                                        }
                                    }
                                }
                            }
                            JOINT LeftFinger2
                            {
                                OFFSET   8.364490   0.000016   1.078090
                                CHANNELS 3 Zrotation Xrotation Yrotation
                                JOINT LeftFinger21
                                {
                                    OFFSET   5.111610   0.000000   0.000000
                                    CHANNELS 3 Zrotation Xrotation Yrotation
                                    JOINT LeftFinger22
                                    {
                                        OFFSET   2.788150   0.000016   0.000000
                                        CHANNELS 3 Zrotation Xrotation Yrotation
                                        End Site
                                        {
                                            OFFSET   2.727660   0.000000   0.000000
                                        }
                                    }
                                }
                            }
                            JOINT LeftFinger3
                            {
                                OFFSET   7.899780   0.000015  -1.078090
                                CHANNELS 3 Zrotation Xrotation Yrotation
                                JOINT LeftFinger31
                                {
                                    OFFSET   4.646930   0.000000   0.000000
                                    CHANNELS 3 Zrotation Xrotation Yrotation
                                    JOINT LeftFinger32
                                    {
                                        OFFSET   2.323470   0.000000   0.000000
                                        CHANNELS 3 Zrotation Xrotation Yrotation
                                        End Site
                                        {
                                            OFFSET   2.273050   0.000000   0.000000
                                        }
                                    }
                                }
                            }
                            JOINT LeftFinger4
                            {
                                OFFSET   7.435090   0.000000  -3.252850
                                CHANNELS 3 Zrotation Xrotation Yrotation
                                JOINT LeftFinger41
                                {
                                    OFFSET   3.717550   0.000000   0.000000
                                    CHANNELS 3 Zrotation Xrotation Yrotation
                                    JOINT LeftFinger42
                                    {
                                        OFFSET   1.858770   0.000000   0.000000
                                        CHANNELS 3 Zrotation Xrotation Yrotation
                                        End Site
                                        {
                                            OFFSET   1.818440   0.000000   0.000000
                                        }
                                    }
                                }
                            }
                        }
                    }
                }
            }
            JOINT RightCollar
            {
                OFFSET  -3.911910  19.017000  -0.467062
                CHANNELS 3 Zrotation Xrotation Yrotation
                JOINT RightShoulder
                {
                    OFFSET -10.383700   0.000014   0.000000
                    CHANNELS 3 Zrotation Xrotation Yrotation
                    JOINT RightElbow
                    {
                        OFFSET -26.662100   0.001225   0.001091
                        CHANNELS 3 Zrotation Xrotation Yrotation
                        JOINT RightWrist
                        {
                            OFFSET -28.869000  -0.000020  -0.000085
                            CHANNELS 3 Zrotation Xrotation Yrotation
                            JOINT RightFinger0
                            {
                                OFFSET  -2.044650  -2.323490   3.252850
                                CHANNELS 3 Zrotation Xrotation Yrotation
                                JOINT RightFinger01
                                {
                                    OFFSET  -3.088130   0.000000   0.000000
                                    CHANNELS 3 Zrotation Xrotation Yrotation
                                    JOINT RightFinger02
                                    {
                                        OFFSET  -2.639460   0.000000   0.000000
                                        CHANNELS 3 Zrotation Xrotation Yrotation
                                        End Site
                                        {
                                            OFFSET  -2.582190   0.000000   0.000000
                                        }
                                    }
                                }
                            }
                            JOINT RightFinger1
                            {
                                OFFSET  -8.364480   0.000000   3.252850
                                CHANNELS 3 Zrotation Xrotation Yrotation
                                JOINT RightFinger11
                                {
                                    OFFSET  -4.646930   0.000000   0.000000
                                    CHANNELS 3 Zrotation Xrotation Yrotation
                                    JOINT RightFinger12
                                    {
                                        OFFSET  -2.323470   0.000000   0.000000
                                        CHANNELS 3 Zrotation Xrotation Yrotation
                                        End Site
                                        {
                                            OFFSET  -2.273050   0.000000   0.000000
                                        }
                                    }
                                }
                            }
                            JOINT RightFinger2
                            {
                                OFFSET  -8.364480   0.000000   1.078090
                                CHANNELS 3 Zrotation Xrotation Yrotation
                                JOINT RightFinger21
                                {
                                    OFFSET  -5.111620   0.000000   0.000000
                                    CHANNELS 3 Zrotation Xrotation Yrotation
                                    JOINT RightFinger22
                                    {
                                        OFFSET  -2.788160   0.000000   0.000000
                                        CHANNELS 3 Zrotation Xrotation Yrotation
                                        End Site
                                        {
                                            OFFSET  -2.727660   0.000000   0.000000
                                        }
                                    }
                                }
                            }
                            JOINT RightFinger3
                            {
                                OFFSET  -7.899780   0.000000  -1.078090
                                CHANNELS 3 Zrotation Xrotation Yrotation
                                JOINT RightFinger31
                                {
                                    OFFSET  -4.646930   0.000000   0.000000
                                    CHANNELS 3 Zrotation Xrotation Yrotation
                                    JOINT RightFinger32
                                    {
                                        OFFSET  -2.323470   0.000000   0.000000
                                        CHANNELS 3 Zrotation Xrotation Yrotation
                                        End Site
                                        {
                                            OFFSET  -2.273050   0.000000   0.000000
                                        }
                                    }
                                }
                            }
                            JOINT RightFinger4
                            {
                                OFFSET  -7.435090   0.000000  -3.252850
                                CHANNELS 3 Zrotation Xrotation Yrotation
                                JOINT RightFinger41
                                {
                                    OFFSET  -3.717550   0.000000   0.000000
                                    CHANNELS 3 Zrotation Xrotation Yrotation
                                    JOINT RightFinger42
                                    {
                                        OFFSET  -1.858760   0.000000   0.000000
                                        CHANNELS 3 Zrotation Xrotation Yrotation
                                        End Site
                                        {
                                            OFFSET  -1.818440   0.000000   0.000000
                                        }
                                    }
                                }
                            }
                        }
                    }
                }
            }
        }
    }
    JOINT LeftHip
    {
        OFFSET   9.783030   0.000000   0.000000
        CHANNELS 3 Zrotation Xrotation Yrotation
        JOINT LeftKnee
        {
            OFFSET   0.000063 -41.789100   0.000608
            CHANNELS 3 Zrotation Xrotation Yrotation
            JOINT LeftAnkle
            {
                OFFSET   0.000048 -41.133200  -0.000184
                CHANNELS 3 Zrotation Xrotation Yrotation
                JOINT LeftToe
                {
                    OFFSET   0.000000  -6.358960  14.674500
                    CHANNELS 3 Zrotation Xrotation Yrotation
                    End Site
                    {
                        OFFSET   0.000000   0.000000   3.913200
                    }
                }
            }
        }
    }
    JOINT RightHip
    {
        OFFSET  -9.783030   0.000000   0.000000
        CHANNELS 3 Zrotation Xrotation Yrotation
        JOINT RightKnee
        {
            OFFSET   0.000071 -41.789100   0.001239
            CHANNELS 3 Zrotation Xrotation Yrotation
            JOINT RightAnkle
            {
                OFFSET   0.000037 -41.133200  -0.000166
                CHANNELS 3 Zrotation Xrotation Yrotation
                JOINT RightToe
                {
                    OFFSET   0.000000  -6.358960  14.674500
                    CHANNELS 3 Zrotation Xrotation Yrotation
                    End Site
                    {
                        OFFSET   0.000000   0.000000   3.913200
                    }
                }
            }
        }
    }
}
MOTION
Frames: 5
Frame Time:   0.016667
 -0.115561  89.553500   2.163630  -1.863890  -7.491190  -2.790270   0.882388   4.533750  -0.590654   1.820360   9.057600  -1.257460   1.579620  -0.913288   0.027231   2.597200  -1.847870   5.871940  -4.752620   0.811810   2.963450 -72.163600  23.001700  -4.691430  -2.922900 -10.592200 -15.965700  13.062900 -12.730900   9.267980  39.779000  33.208600 -62.070600 -31.300200   0.004293   0.002705 -10.660500   0.005356  -0.004033 -32.716900   8.848780 -13.466600 -27.624500   0.003295  -0.004538 -19.337200   0.003868  -0.000435 -28.281500   1.473330  -2.735920 -34.364100   0.006099  -0.002331 -22.886500  -0.000525   0.000421 -27.314400   1.426470  -2.760620 -28.450800   0.004650  -0.002372 -18.948200   0.002339  -0.001441 -24.617800   0.416870  -0.909711 -36.931600  -0.002066  -0.003610 -24.596400   0.000787  -0.002264   9.778860   2.336650   7.449380  64.449600  23.686500   0.747933  -0.678757  -3.850820  11.480100 -11.746600 -13.350000  -2.971330 -37.998500  30.078900  61.139500  31.019400   0.001229  -0.005025  10.507100   0.000485  -0.003585  28.162700   9.346430  16.874400  24.186600  -0.003048   0.000336  16.923500   0.002456   0.001710  27.852000   5.473980  10.248300  34.566400  -0.008046   0.009609  23.014100  -0.003663   0.006445  26.083100   1.761050   3.593490  26.134500  -0.003869   0.008799  17.407500   0.000000   0.007185  31.568300   0.961788   1.556950  47.363100  -0.007546   0.008019  31.549600  -0.015131   0.002012   1.539990   9.992980   4.598930   0.883155   0.148017  11.417400  -1.860030  -3.447900   2.760760  -0.000000   0.000000   0.000000   2.539240  10.070100  -0.630927   0.095529   0.967659  -8.572550  -1.070220  -5.077720  -2.285660  -0.000000   0.000000  -0.000000
 -0.110478  89.553500   2.167050  -1.863800  -7.491090  -2.790080   0.882275   4.533740  -0.590435   1.820110   9.057590  -1.257010   1.579480  -0.920819   0.027231   2.597690  -1.863060   5.872100  -4.759320   0.811887   2.963540 -72.183600  22.994900  -4.672130  -2.932800 -10.560300 -15.984900  13.056700 -12.721700   9.247270  39.783100  33.217800 -62.065400 -31.305800   0.004289   0.002661 -10.661000   0.005344  -0.004038 -32.721900   8.833400 -13.440000 -27.624500   0.003302  -0.004569 -19.337200   0.003885  -0.000451 -28.282800   1.456660  -2.704860 -34.370500   0.006100  -0.002338 -22.890800  -0.000508   0.000408 -27.315900   1.410480  -2.729210 -28.467500   0.004651  -0.002379 -18.959400   0.002356  -0.001445 -24.619700   0.411124  -0.897081 -36.934300  -0.002056  -0.003618 -24.598200   0.000791  -0.002270   9.778810   2.336680   7.450390  64.449400  23.690800   0.747931  -0.679823  -3.845310  11.479800 -11.747600 -13.344000  -2.964880 -38.001600  30.070800  61.131200  31.009900   0.001214  -0.005032  10.507200   0.000485  -0.003582  28.160500   9.345670  16.886500  24.186600  -0.003052   0.000309  16.923300   0.002462   0.001712  27.851900   5.474000  10.248300  34.566100  -0.008051   0.009605  23.015900  -0.003673   0.006444  26.082200   1.768350   3.607800  26.135300  -0.003874   0.008793  17.407500   0.000000   0.007180  31.568200   0.961810   1.556950  47.369000  -0.007553   0.008020  31.549600  -0.015132   0.002007   1.537350  10.021800   4.599680   0.883746   0.078134  11.418100  -1.849600  -3.414840   2.763030   0.000000   0.000000   0.000000   2.539200  10.064900  -0.631051   0.095535   0.977416  -8.572600  -1.069870  -5.082490  -2.285680   0.000000   0.000000   0.000000
 -0.102116  89.553500   2.172680  -1.863680  -7.490930  -2.789890   0.881597   4.533710  -0.590003   1.818720   9.057540  -1.256090   1.579340  -0.933915   0.027229   2.598630  -1.889510   5.872390  -4.769680   0.812034   2.963640 -72.217400  22.987900  -4.641160  -2.946230 -10.505800 -16.015400  13.047800 -12.708700   9.217310  39.790000  33.230500 -62.058400 -31.311300   0.004271   0.002617 -10.661600   0.005322  -0.004048 -32.725500   8.812070 -13.408500 -27.624500   0.003324  -0.004648 -19.337200   0.003930  -0.000496 -28.284600   1.434040  -2.662610 -34.383900   0.006102  -0.002356 -22.899700  -0.000463   0.000374 -27.318000   1.388810  -2.686470 -28.496900   0.004654  -0.002396 -18.979000   0.002399  -0.001456 -24.621700   0.402533  -0.878260 -36.937100  -0.002032  -0.003641 -24.600100   0.000802  -0.002283   9.778670   2.336700   7.453500  64.449200  23.695100   0.747929  -0.681575  -3.836190  11.479500 -11.749900 -13.338100  -2.953850 -38.004700  30.062700  61.122900  31.000400   0.001189  -0.005038  10.507300   0.000486  -0.003578  28.158400   9.344830  16.898500  24.186600  -0.003056   0.000253  16.923100   0.002474   0.001714  27.851800   5.474070  10.248400  34.565800  -0.008072   0.009594  23.020800  -0.003690   0.006434  26.081300   1.775640   3.622120  26.137400  -0.003886   0.008780  17.407500   0.000000   0.007166  31.568200   0.961860   1.556960  47.375000  -0.007572   0.008021  31.549500  -0.015136   0.001993   1.534700  10.050600   4.600430   0.884338   0.008252  11.418800  -1.837370  -3.381770   2.767480  -0.000000   0.000000  -0.000000   2.539140  10.059700  -0.631233   0.095542   0.987173  -8.572660  -1.069090  -5.087260  -2.285740  -0.000000   0.000000   0.000000
 -0.095663  89.553500   2.177100  -1.863640  -7.490770  -2.789930   0.880046   4.533100  -0.589503   1.815560   9.056330  -1.254950   1.579390  -0.946062   0.027215   2.599410  -1.914080   5.872630  -4.776460   0.812231   2.963610 -72.245700  22.988300  -4.619810  -2.950180 -10.459000 -16.035400  13.044200 -12.705500   9.204020  39.794800  33.233800 -62.056400 -31.308800   0.004232   0.002622 -10.657600   0.005300  -0.004061 -32.718900   8.804180 -13.402800 -27.618700   0.003360  -0.004767 -19.333300   0.004000  -0.000570 -28.286800   1.427690  -2.650550 -34.394600   0.006105  -0.002383 -22.906800  -0.000397   0.000318 -27.322300   1.382850  -2.674210 -28.520900   0.004661  -0.002422 -18.994900   0.002467  -0.001474 -24.612200   0.396902  -0.866125 -36.922100  -0.001996  -0.003681 -24.590500   0.000822  -0.002302   9.780820   2.336550   7.460710  64.450400  23.690300   0.747912  -0.683182  -3.827250  11.480900 -11.755000 -13.348900  -2.943950 -38.005400  30.064300  61.124600  31.001600   0.001173  -0.005016  10.507300   0.000496  -0.003592  28.161600   9.345150  16.889800  24.186600  -0.003054   0.000178  16.924700   0.002486   0.001715  27.852100   5.474180  10.248400  34.576400  -0.008120   0.009579  23.029400  -0.003708   0.006409  26.084000   1.769920   3.609900  26.140300  -0.003906   0.008762  17.409200   0.000000   0.007147  31.568100   0.961931   1.556960  47.374800  -0.007601   0.008019  31.549400  -0.015144   0.001971   1.535060  10.049300   4.600380   0.883342   0.014320  11.418600  -1.834800  -3.388130   2.772890   0.000000   0.000000   0.000000   2.538940  10.065600  -0.631342   0.095554   0.979861  -8.570110  -1.068060  -5.083740  -2.286020   0.000000   0.000000  -0.000000
 -0.089326  89.553500   2.181360  -1.863670  -7.490670  -2.790260   0.877851   4.532110  -0.588948   1.811090   9.054390  -1.253650   1.579640  -0.957813   0.027202   2.600810  -1.937870   5.872900  -4.781970   0.812359   2.963450 -72.274500  22.988600  -4.597660  -2.951150 -10.411500 -16.056100  13.041200 -12.701300   9.193920  39.801100  33.237100 -62.055900 -31.302100   0.004185   0.002627 -10.651000   0.005272  -0.004080 -32.709900   8.802220 -13.401900 -27.610400   0.003407  -0.004921 -19.327300   0.004089  -0.000663 -28.291100   1.425680  -2.646410 -34.419600   0.006109  -0.002418 -22.923500  -0.000312   0.000247 -27.330500   1.381100  -2.669950 -28.552300   0.004670  -0.002455 -19.015800   0.002554  -0.001495 -24.598600   0.394116  -0.860181 -36.902400  -0.001949  -0.003732 -24.577000   0.000848  -0.002327   9.785670   2.336240   7.466220  64.452400  23.685400   0.747954  -0.683974  -3.821900  11.483800 -11.758300 -13.364200  -2.934880 -38.007400  30.067400  61.127400  31.004000   0.001157  -0.004982  10.507300   0.000514  -0.003606  28.166400   9.345590  16.880000  24.186600  -0.003052   0.000101  16.927200   0.002499   0.001715  27.852900   5.474310  10.248300  34.591900  -0.008181   0.009562  23.038200  -0.003731   0.006375  26.088600   1.764200   3.597680  26.144000  -0.003931   0.008740  17.412200   0.000000   0.007122  31.568000   0.962014   1.556970  47.374300  -0.007639   0.008016  31.549300  -0.015156   0.001945   1.536160  10.040600   4.600120   0.879354   0.042018  11.418200  -1.833320  -3.406590   2.778110  -0.000000   0.000000   0.000000   2.538530  10.071600  -0.631393   0.095515   0.972557  -8.564470  -1.067010  -5.080220  -2.287900  -0.000000   0.000000   0.000000
